<?xml version="1.0" encoding="UTF-8" standalone="no"?>
<svg
   xmlns:dc="http://purl.org/dc/elements/1.1/"
   xmlns:cc="http://creativecommons.org/ns#"
   xmlns:rdf="http://www.w3.org/1999/02/22-rdf-syntax-ns#"
   xmlns:svg="http://www.w3.org/2000/svg"
   xmlns="http://www.w3.org/2000/svg"
   viewBox="0 0 1632.5206 591.74182"
   height="591.74182"
   width="1632.5206"
   id="svg885"
   version="1.1">
  <metadata
     id="metadata891">
    <rdf:RDF>
      <cc:Work
         rdf:about="">
        <dc:format>image/svg+xml</dc:format>
        <dc:type
           rdf:resource="http://purl.org/dc/dcmitype/StillImage" />
        <dc:title></dc:title>
      </cc:Work>
    </rdf:RDF>
  </metadata>
  <defs
     id="defs889" />
  <g
     transform="translate(-250.88152,447.238)"
     id="g893">
    <path
       id="path897"
       d="m 931.41732,141.89683 c -7.00227,-1.83466 -9.95654,-2.21611 -11.23643,-1.45084 -2.67405,1.59889 -6.59239,1.23209 -7.60336,-0.71174 -1.21038,-2.32728 -2.94709,-12.85834 -3.7557,-22.77388 -0.54648,-6.70119 -0.38863,-8.24441 0.95759,-9.36167 3.19666,-2.653 6.21122,-0.60334 8.63165,5.86885 2.79668,7.47825 8.6876,14.29016 15.3829,17.78787 4.17375,2.18042 6.44728,2.67396 12.26631,2.66277 6.15155,-0.0118 7.81708,-0.4262 12,-2.98547 8.70455,-5.32578 11.91136,-16.52126 7.31373,-25.53337 -3.43931,-6.741588 -8.27401,-11.162188 -23.8586,-21.815038 -17.5128,-11.97088 -27.87004,-22.04769 -30.45311,-29.62859 -1.90476,-5.59015 -2.14312,-15.07678 -0.51534,-20.50984 1.89847,-6.33653 7.7214,-12.94905 14.82443,-16.83462 5.65655,-3.0943 7.51731,-3.58141 15.05859,-3.94196 6.6573,-0.31829 10.36596,0.0719 16.38808,1.724 5.50142,1.50929 9.16196,1.95254 12.48479,1.51175 3.39378,-0.4502 5.01956,-0.24009 5.84584,0.75552 0.62953,0.75854 1.86783,6.92109 2.75178,13.69454 1.74523,13.37328 1.38647,15.12914 -3.0912,15.12914 -1.8832,0 -2.97387,-1.20981 -5.3701,-5.95671 -3.72707,-7.3833 -8.23066,-12.60287 -12.92717,-14.98237 -12.26068,-6.21189 -25.90999,-1.14378 -27.61939,10.25531 -0.59135,3.94338 -0.27723,5.5683 1.96064,10.14234 3.30419,6.75353 8.35735,11.32603 26.47736,23.95883 15.4112,10.74429 22.20833,17.47033 26.65033,26.37157 3.96999,7.955408 4.09546,19.091378 0.3071,27.256658 -8.73273,18.8222 -28.00534,25.88191 -52.87072,19.36695 z m 96.99998,0 c -7.0022,-1.83466 -9.9565,-2.21611 -11.2364,-1.45084 -2.6741,1.59889 -6.5924,1.23209 -7.6034,-0.71174 -1.2103,-2.32728 -2.9471,-12.85834 -3.7557,-22.77388 -0.5464,-6.70119 -0.3886,-8.24441 0.9576,-9.36167 3.1967,-2.653 6.2112,-0.60334 8.6317,5.86885 5.4273,14.51257 20.1143,23.42944 33.0166,20.04523 10.2838,-2.6974 15.9227,-9.51967 15.9677,-19.31837 0.046,-10.13819 -5.4619,-16.653318 -25.88,-30.610098 -17.5128,-11.97088 -27.87,-22.04769 -30.4531,-29.62859 -1.9048,-5.59015 -2.1431,-15.07678 -0.5153,-20.50984 1.8984,-6.33653 7.7214,-12.94905 14.8244,-16.83462 5.6565,-3.0943 7.5173,-3.58141 15.0586,-3.94196 6.6573,-0.31829 10.3659,0.0719 16.3881,1.724 5.5014,1.50929 9.1619,1.95254 12.4848,1.51175 3.3592,-0.44562 5.0185,-0.23787 5.8127,0.72778 0.6113,0.74328 1.8321,6.92692 2.7128,13.74141 1.7335,13.41151 1.3941,15.11001 -3.0191,15.11001 -1.8832,0 -2.9739,-1.20981 -5.3701,-5.95671 -6.1133,-12.11036 -13.1256,-17.31483 -23.5219,-17.45781 -9.6024,-0.13205 -16.0777,4.84746 -17.2018,13.22813 -0.4329,3.22774 0.035,5.34748 2.1236,9.61603 3.3221,6.79008 8.3444,11.34126 26.5392,24.04944 15.4886,10.81805 22.1686,17.42452 26.6026,26.30989 3.97,7.955408 4.0955,19.091378 0.3071,27.256658 -8.7327,18.8222 -28.0053,25.88191 -52.8707,19.36695 z m 133.6592,1.32745 c -0.952,-0.69611 -11.0843,-25.33237 -22.6414,-55.051458 -11.5051,-29.58533 -21.8296,-55.26608 -22.9435,-57.06833 -2.5149,-4.0692 -5.1763,-5.31363 -13.2419,-6.19157 -7.1713,-0.7806 -8.8324,-1.7075 -8.8324,-4.92867 0,-4.73521 1.5193,-5 28.6879,-5 21.4726,0 25.528,0.23102 26.3316,1.5 2.6068,4.11636 0.3589,7.25026 -5.6998,7.9463 l -4.8197,0.5537 0.1029,4.5 c 0.076,3.31061 4.3046,15.05814 16,44.44638 8.7434,21.97051 16.3471,39.970508 16.8971,39.999998 1.3924,0.0747 17.3201,-39.264268 17.3883,-42.946378 0.074,-3.97544 -15.1706,-40.23685 -18.1811,-43.24735 -1.6762,-1.67622 -4.1799,-2.61272 -8.6888,-3.25005 -6.7724,-0.95728 -8.1871,-2.04912 -7.7774,-6.0026 0.255,-2.46112 0.4487,-2.51371 12.4548,-3.38161 7.0388,-0.50882 25.0102,-0.50882 42.5,0 l 30.3042,0.88161 0.3282,2.87182 c 0.452,3.95586 -0.8286,4.87738 -7.9436,5.71631 -8.1862,0.96523 -9.7666,2.71041 -16.2841,17.98195 -9.0394,21.18054 -9.3961,15.95967 3.1431,45.9948 5.9901,14.348178 11.2567,26.165778 11.7034,26.261358 0.4467,0.0956 5.95,-13.32624 12.2295,-29.826238 17.1138,-44.96753 20.4605,-54.50887 20.1272,-57.38206 -0.2673,-2.30446 -0.9423,-2.74041 -5.6368,-3.64071 -5.8064,-1.11355 -7.404,-2.74852 -6.0847,-6.22723 0.8476,-2.2348 0.9952,-2.25 21.8504,-2.25 19.9736,0 21.0492,0.0975 22.0674,2 1.8312,3.42168 -0.2937,5.71518 -6.0254,6.50349 -6.3131,0.86828 -10.0318,3.87735 -12.8298,10.38166 -1.1668,2.71223 -10.9288,28.03511 -21.6933,56.27308 -10.7646,28.237978 -20.3058,51.904268 -21.2028,52.591768 -2.5025,1.918 -10.6389,1.59185 -12.4733,-0.5 -0.8441,-0.9625 -6.1295,-12.775 -11.7453,-26.25 -11.7026,-28.079538 -11.5034,-27.661158 -12.4425,-26.141638 -0.3791,0.61336 -5.3752,12.672098 -11.1025,26.797208 -5.7273,14.12512 -10.9919,26.04918 -11.6992,26.49792 -2,1.26901 -10.2086,0.98914 -12.1267,-0.41346 z m 43.2829,-109.058338 c 1.7004,-4.30008 2.8324,-8.23758 2.5157,-8.75 -0.3167,-0.51243 -3.7555,-0.93169 -7.6418,-0.93169 h -7.066 l 0.5522,2.75 c 0.9842,4.90206 6.7167,16.63241 7.6562,15.66693 0.4908,-0.50431 2.2834,-4.43517 3.9837,-8.73524 z M 1490.9173,143.0166 c -24.7887,-5.40666 -44.9329,-24.31769 -50.6317,-47.532348 -1.8459,-7.51958 -1.5966,-24.93033 0.4726,-33 2.9869,-11.64879 8.2469,-20.60888 17.6461,-30.0593 14.2436,-14.32109 28.2571,-19.9407 49.7256,-19.9407 14.0859,0 23.108,1.90099 34.2312,7.21264 6.7812,3.23817 10.0343,5.63257 16.521,12.15976 12.7964,12.87636 17.5882,24.75668 17.6312,43.71306 0.048,21.28513 -5.2098,34.118238 -20.0541,48.945538 -10.6762,10.66399 -17.3788,14.60245 -30.6099,17.98639 -9.1034,2.32826 -25.5094,2.57011 -34.932,0.51496 z m 39.681,-12.30068 c 11.3304,-5.57795 18.3345,-15.96921 21.3353,-31.653078 1.8856,-9.8551 1.876,-26.04444 -0.021,-35.07859 -3.3338,-15.87873 -13.8852,-30.55486 -26.5072,-36.86941 -18.112,-9.06106 -37.8497,-6.36435 -49.6737,6.78677 -9.246,10.28406 -13.3144,22.99001 -13.3144,41.58264 0,28.841758 12.8118,49.890628 34.7619,57.111438 4.4461,1.46259 8.111,1.82948 16.2767,1.62944 9.5948,-0.23505 11.13,-0.54932 17.1424,-3.50921 z m 269.1917,11.78959 c -10.2655,-2.69136 -18.3266,-7.11426 -25.9946,-14.26241 -8.478,-7.90324 -13.678,-15.89329 -17.0384,-26.18044 -3.3847,-10.361538 -3.8638,-28.223848 -1.0348,-38.578408 6.6821,-24.4578 26.6898,-44.49529 49.5246,-49.59821 10.6268,-2.37477 28.4341,-1.54145 41.8961,1.9606 6.6785,1.73734 12.2288,2.5695 16,2.39887 l 5.7744,-0.26126 0.2749,16.26928 c 0.2948,17.45366 -0.28,20.23072 -4.1876,20.23072 -3.0645,0 -3.9814,-1.23902 -6.5335,-8.82871 -2.3509,-6.99131 -5.5686,-12.53701 -9.1842,-15.82869 -13.5306,-12.31867 -42.2136,-10.09388 -56.7058,4.39838 -5.9922,5.99223 -11.6515,17.19442 -13.7711,27.25902 -2.4022,11.40647 -1.488,32.28445 1.8005,41.119568 6.3612,17.0904 16.0657,26.68013 30.8315,30.46706 8.468,2.17176 20.0648,1.47983 29.4753,-1.75868 l 7,-2.40896 0.2748,-14.98441 c 0.2034,-11.08975 -0.063,-15.447058 -1.0267,-16.764448 -1.5638,-2.13861 -7.3796,-3.61372 -14.3757,-3.64627 -5.8489,-0.0272 -7.6799,-1.48123 -7.1947,-5.71339 l 0.3223,-2.81047 26.5,-0.5 c 14.575,-0.275 27.5125,-0.17364 28.75,0.22525 1.4692,0.47356 2.2447,1.51466 2.2347,3 -0.024,3.53452 -1.4559,5.00359 -5.5228,5.66524 -6.709,1.09151 -7.7299,3.70274 -8.1215,20.772468 -0.1862,8.11578 -0.5766,15.50591 -0.8675,16.42252 -0.6107,1.92395 -8.894,5.80014 -18.9268,8.85678 -17.2722,5.26227 -37.185,6.48426 -50.1734,3.079 z m -394.8114,-0.67621 c -8.9263,-2.73935 -22.0329,-18.27107 -35.5811,-42.164408 l -5.2844,-9.31936 -10.0979,0.68361 c -5.5538,0.37599 -10.4658,1.02257 -10.9154,1.43685 -0.4496,0.41428 -0.6746,8.503578 -0.5,17.976238 0.3081,16.7116 0.3876,17.27971 2.6783,19.13252 1.7664,1.42872 3.9515,1.9095 8.6786,1.9095 6.6076,0 9.4759,1.46415 9.4453,4.82143 -0.042,4.59127 -0.3809,4.6505 -29.6964,5.1893 -15.2836,0.28091 -28.7882,0.18432 -30.0104,-0.21463 -2.8803,-0.94023 -4.0825,-5.42004 -2.0106,-7.49196 0.8396,-0.83962 3.7104,-1.72797 6.3796,-1.97411 7.1751,-0.66166 9.0454,-1.16517 10.7832,-2.90296 1.3837,-1.38369 1.5699,-7.36105 1.5699,-50.387708 0,-56.78839 0.7423,-52.8038 -10.0467,-53.92789 -7.9097,-0.82409 -8.9533,-1.42966 -8.9533,-5.19524 0,-2.28897 0.6054,-3.19592 2.6532,-3.97446 1.4592,-0.5548 14.1717,-1.28739 28.25,-1.62798 28.7136,-0.69466 39.1942,0.25779 47.8445,4.34795 6.9653,3.29348 15.1441,10.90838 18.7947,17.4989 2.6945,4.86447 2.9576,6.18431 2.9576,14.83936 0,8.55525 -0.3091,10.15221 -3.1078,16.05842 -3.0459,6.42782 -8.4236,12.91125 -13.3922,16.14594 l -2.5,1.62756 2.372,4.33404 c 1.3046,2.38372 7.1117,11.457338 12.9047,20.163598 11.0745,16.64375 15.6292,21.41451 24.5078,25.67044 5.3547,2.56673 6.8314,4.95055 4.6756,7.54804 -1.6273,1.96082 -15.7655,1.8327 -22.3988,-0.20299 z m -40.9904,-62.725818 c 12.0554,-5.61356 18.0689,-21.76434 14.0076,-37.62097 -2.2272,-8.6954 -5.0048,-12.52236 -11.3672,-15.66148 -5.5018,-2.7145 -16.5556,-4.22014 -21.6308,-2.94634 l -2.5805,0.64766 v 28.98095 28.98095 l 8.25,-0.01 c 6.5583,-0.008 9.2898,-0.49395 13.3209,-2.371 z m 347.5527,61.630768 c -1.5994,-1.5125 -14.544,-16.02761 -28.7658,-32.25581 -14.2218,-16.228198 -33.0578,-37.715488 -41.8578,-47.749538 -8.8,-10.03405 -16.3561,-18.24393 -16.7913,-18.24419 -0.4352,-2.5e-4 -0.6602,18.93889 -0.5,42.08699 l 0.2913,42.087448 2.8058,2.41255 c 2.1581,1.85568 3.9621,2.41255 7.8157,2.41255 6.4679,0 8.8785,1.31279 8.8785,4.83518 0,5.03888 -0.634,5.16482 -26,5.16482 -24.8557,0 -26,-0.20146 -26,-4.57756 0,-3.08025 2.2873,-4.61028 8.29,-5.54545 3.7115,-0.5782 5.8572,-1.55617 7.46,-3.40009 l 2.25,-2.58843 V 76.377462 27.382202 l -3.4679,-1.44898 c -1.9073,-0.79693 -5.0252,-1.44897 -6.9286,-1.44897 -3.3243,0 -6.6035,-2.05445 -6.6035,-4.13717 0,-0.54687 0.4658,-1.86473 1.0352,-2.92857 0.9588,-1.79152 2.2442,-1.93426 17.4189,-1.93426 h 16.3837 l 6.9454,7.75 c 3.82,4.2625 21.4415,24.4 39.159,44.75 17.7174,20.35 32.6284,37.149998 33.1356,37.333328 0.5527,0.19978 0.9222,-15.063668 0.9222,-38.095008 0,-44.51564 0.7742,-41.36775 -10.4318,-42.41418 -5.4983,-0.51344 -6.9928,-1.04259 -8.2156,-2.90882 -1.1521,-1.75828 -1.2412,-2.75504 -0.3885,-4.34826 1.0716,-2.00223 1.8673,-2.06706 25.3711,-2.06706 24.8492,0 26.6858,0.27222 26.6495,3.95 -0.033,3.31291 -1.8972,4.43714 -8.4905,5.11957 -3.6588,0.3787 -7.1205,1.15677 -7.6928,1.72905 -2.2937,2.29373 -2.7161,11.85195 -2.7578,62.4162 -0.042,51.070628 -0.1039,52.747098 -1.9779,53.749998 -3.04,1.62699 -4.8132,1.24414 -7.9421,-1.71482 z m -1037.92358,-0.45 c -1.38644,-1.38644 -1.5497,-4.70007 -0.32663,-6.62934 0.4635,-0.73114 3.86506,-1.70416 7.559,-2.16227 11.48435,-1.42426 10.56763,3.1051 10.56763,-52.213038 0,-40.03327 -0.23964,-48.35807 -1.45995,-50.71791 -1.54799,-2.99348 -3.96093,-4.04157 -9.35579,-4.06379 -4.49577,-0.0185 -7.18738,-1.63253 -7.16895,-4.29883 0.0321,-4.64128 -0.0182,-4.63351 30.81878,-4.75983 31.00328,-0.127 32.16591,0.03728 32.16591,4.54501 0,3.51897 -1.90146,4.34521 -11.70252,5.08509 -5.0173,0.37876 -9.72427,1.06058 -10.45992,1.51515 -1.0873,0.67187 -1.33756,9.99454 -1.33756,49.82717 0,45.676868 0.12093,49.121808 1.78286,50.786628 1.49272,1.49531 3.93332,1.84038 14.99691,2.12033 22.73405,0.57528 26.26116,-0.53244 34.49807,-10.83437 9.68032,-12.10721 10.44265,-12.63665 13.62007,-9.45923 1.38769,1.38769 1.34821,2.02928 -0.39736,6.45783 -3.73923,9.48652 -10.96572,22.8636 -13.1946,24.42477 -1.96588,1.37695 -7.77,1.57663 -45.82846,1.57663 -32.56027,0 -43.88087,-0.30338 -44.77749,-1.2 z m 113,0 c -1.57455,-1.57455 -1.54188,-6.46314 0.05,-7.48203 0.6875,-0.44004 5.02719,-1.05988 9.64375,-1.37743 10.48435,-0.72116 11.65057,-1.84962 12.60482,-12.19667 1.12555,-12.20438 0.10201,-86.865808 -1.23291,-89.933718 -1.27707,-2.93494 -6.04427,-4.79472 -12.31566,-4.80457 -4.03619,-0.006 -5.95,-1.45556 -5.95,-4.50558 0,-4.49516 0.0507,-4.5 47.17695,-4.5 h 44.77694 l 1.47349,2.25 c 1.05983,1.61835 1.55758,5.89952 1.77305,15.25 l 0.29957,13 -3.24281,0.31282 c -3.58054,0.3454 -3.43731,0.56044 -6.86592,-10.30806 -2.63343,-8.34785 -3.77877,-8.7759 -24.91886,-9.31303 -14.27743,-0.36276 -17.22843,-0.19063 -18.27109,1.0657 -0.92229,1.11128 -1.17348,6.76086 -0.97241,21.87045 l 0.27109,20.37212 11,0.3129 c 13.53947,0.38513 23.06667,-0.52242 24.9179,-2.37366 0.76978,-0.76978 1.71655,-3.32102 2.10392,-5.66942 0.38737,-2.3484 1.15853,-4.83232 1.71369,-5.51982 1.53649,-1.90276 5.56395,-1.49324 6.72931,0.68426 0.59604,1.11372 1.03518,9.07937 1.03518,18.77749 0,13.80603 -0.28789,17.25426 -1.59656,19.12264 -1.76488,2.51972 -5.20099,2.60736 -6.49269,0.16561 -0.43643,-0.825 -1.38239,-3.51514 -2.10213,-5.97808 -1.89374,-6.48034 -3.50152,-6.98982 -22.11275,-7.00718 l -15.80412,-0.01474 0.30412,21.952078 c 0.22634,16.33724 0.63643,22.28405 1.60332,23.25 1.8244,1.82261 37.42649,1.84039 41.70081,0.0208 3.57284,-1.52094 6.78896,-6.17325 9.05332,-13.09613 1.90737,-5.83143 3.41592,-7.41082 6.64164,-6.95354 2.23465,0.31678 2.30372,0.63213 2.26196,10.32676 -0.0549,12.75073 -1.10079,19.14387 -3.529,21.57208 -1.85175,1.85178 -3.87567,1.92795 -51.22792,1.92795 -37.01111,0 -49.59912,-0.29912 -50.5,-1.2 z"
       style="fill:#4d4d4d;fill-opacity:1" />
    <path
       style="fill:#bebebe;fill-opacity:1"
       d="m 543.99581,140.40179 c -0.26789,-0.77947 -8.84232,-46.192223 -19.05429,-100.917223 -22.35002,-119.7717 -20.40951,-110.0006 -21.8451,-109.9972 -0.6485,0 -19.68382,10.2812 -42.30071,22.8437 -22.61688,12.5625 -41.85438,23.1222 -42.75,23.4659 -1.06799,0.4098 -1.62839,0.097 -1.62839,-0.9077 0,-0.843 10.35,-20.1501 23,-42.9047 20.8603,-37.523197 24.36518,-44.499997 22.3552,-44.499997 -0.35464,0 -16.44214,-2.9482 -35.75,-6.5517 -139.82697,-26.0957 -174.2081,-32.66 -174.95586,-33.4037 -0.46787,-0.4652 -0.0179,-1.1021 1,-1.4152 1.01786,-0.3131 47.75066,-9.1334 103.85066,-19.6007 56.1,-10.4673 103.0125,-19.2644 104.25,-19.5491 1.2375,-0.2847 2.25,-1.1689 2.25,-1.9648 0,-0.7959 -10.19003,-19.7749 -22.6445,-42.1755 -12.45448,-22.4007 -22.87555,-41.612 -23.15793,-42.6918 -0.40521,-1.5495 -0.11127,-1.8543 1.3945,-1.4461 1.04936,0.2844 20.58293,10.9079 43.40793,23.6076 22.825,12.6996 41.8467,22.7438 42.27044,22.3202 0.42374,-0.4235 9.55029,-47.7634 20.28121,-105.1996 10.73092,-57.4363 19.73648,-105.0674 20.01234,-105.8468 0.29935,-0.8458 0.85317,-1.0474 1.37362,-0.5 0.67877,0.7139 40.06239,207.8696 40.06239,210.726 0,2.0986 6.97123,-1.3835 44.75612,-22.3553 22.83757,-12.6755 42.14904,-22.913 42.91438,-22.75 0.94401,0.2012 -6.17597,13.9504 -22.13949,42.753 -12.94205,23.3511 -23.53101,43.0067 -23.53101,43.6791 0,1.5098 -8.56329,-0.2016 109.5,21.8838 54.45,10.1856 99.8328,18.7803 100.85066,19.0993 1.01787,0.319 1.46787,0.9627 1,1.4305 -0.46786,0.4678 -48.21316,9.7329 -106.10066,20.5892 -74.52029,13.9757 -105.25,20.1122 -105.25,21.0178 0,0.7035 9.84247,18.979797 21.87217,40.613897 26.14321,47.0158 25.33705,45.4826 24.26249,46.1467 -0.47191,0.2916 -19.89442,-10.0328 -43.16114,-22.9433 -38.03211,-21.1036 -44.97352,-24.6505 -44.97352,-22.9805 0,0.2712 -7.88791,42.6837 -17.52869,94.25005 -9.64078,51.56632 -18.4487,98.706953 -19.57315,104.756953 -2.00395,10.78196 -3.3318,14.29157 -4.31967,11.41722 z m 0.4062,-188.108223 c 0.0111,-73.022397 -0.29126,-100.880397 -1.10035,-101.380497 -0.65259,-0.4033 -7.79684,5.9917 -17.21248,15.4073 l -16.09683,16.0969 15.78624,84.783597 c 8.68244,46.63105 16.02725,85.63066 16.32181,86.66583 1.88368,6.61979 2.28787,-11.21734 2.30161,-101.57313 z m -68.02691,-24.7217 c 12.79715,-7.1019 23.6212,-13.2894 24.05344,-13.75 1.17039,-1.247 -2.01849,-17.653997 -3.69149,-18.992997 -1.43841,-1.1512 -18.01077,-4.0395 -18.68274,-3.2561 -0.80977,0.9441 -26.63699,47.812597 -26.63699,48.337997 0,1.3398 2.83904,-0.064 24.95778,-12.3389 z m 162.04222,12.2034 c 0,-0.3901 -5.93014,-11.4151 -13.17808,-24.5 -11.94332,-21.561597 -13.41906,-23.787297 -15.75,-23.753897 -3.40442,0.049 -15.93294,2.4909 -16.69685,3.2548 -0.87853,0.8785 -3.29899,12.694797 -3.33994,16.304997 -0.0342,3.0143 0.59635,3.4461 23.71487,16.24 13.0625,7.2288 24.0875,13.1478 24.5,13.1533 0.4125,0.01 0.75,-0.3091 0.75,-0.6992 z m 28.55797,-73.795397 c 45.61812,-8.5276 84.40453,-15.7777 86.19203,-16.1113 1.7875,-0.3336 3.25,-1.0065 3.25,-1.4953 0,-0.5126 -44.01578,-0.8887 -104,-0.8887 -82.02409,0 -104,0.2617 -104,1.2386 0,2.1984 31.29517,32.7614 33.54625,32.7614 1.13833,0 39.39361,-6.9771 85.01172,-15.5047 z m -125.55797,-20.757 c 0,-0.694 -7.17643,-8.4277 -15.94763,-17.186 l -15.94763,-15.9243 -81.80237,15.2869 c -96.81816,18.0931 -91.4604,17.0204 -90.75024,18.1694 0.33653,0.5446 41.88482,0.9157 102.50689,0.9157 81.39121,0 101.94098,-0.2543 101.94098,-1.2617 z m 21.73896,-16.9769 c 10.3044,-10.2902 16.25726,-16.9755 16.25072,-18.25 -0.0215,-4.1913 -32.03372,-172.9554 -32.98832,-173.91 -0.66848,-0.6685 -1.00136,33.8038 -1.00136,103.6986 0,57.585 0.33253,104.7 0.73896,104.7 0.40643,0 8.05643,-7.3074 17,-16.2386 z m -73.73896,-26.8197 c 3.575,-0.6612 7.01203,-1.706 7.63785,-2.3219 1.36879,-1.3471 4.32614,-17.068 3.46717,-18.431 -0.96512,-1.5314 -48.14466,-27.4825 -48.79019,-26.837 -0.48762,0.4876 20.8204,40.1174 25.52167,47.4665 1.02177,1.5973 2.13315,2.1639 3.57327,1.8219 1.14963,-0.273 5.01523,-1.0373 8.59023,-1.6985 z m 133.29222,-17.9506 c 15.80788,-28.4189 16.08432,-28.9479 15.45548,-29.5767 -0.31659,-0.3166 -11.40622,5.4231 -24.64364,12.755 -20.91707,11.5854 -24.07038,13.6428 -24.08604,15.7153 -0.0286,3.7898 2.21769,15.5162 3.18284,16.6153 0.93577,1.0656 15.29658,4.4129 17.77433,4.1429 0.81136,-0.088 6.35402,-8.9317 12.31703,-19.6518 z"
       id="path941" />
  </g>
</svg>
